# File created by Blade
# Date/Time:  Wed Jan 21 19:03:07 2015
# Frame Rate: 120.000 fps
#------------------------------------------------------
:FULLY-SPECIFIED
:DEGREES
1775
root -3.203048 29.747195 -12.303873 123.053416 1.884176 7.191706
RightUpLeg -128.976587 -29.961939 17.141503
RightLeg -2.086206 -0.000000 0.000000
RightFoot -8.706676 -6.277071 39.347589
RightToeBase 24.881910 -0.000000 -0.000000
LeftUpLeg -132.019457 7.440359 -17.077358
LeftLeg -1.447676 -0.000000 0.000000
LeftFoot 10.399908 -8.386226 -20.924496
LeftToeBase 6.584137 -0.000000 -0.000000
Spine 13.001248 4.723111 1.562512
RightShoulder 8.539137 27.410369 -44.876219
RightArm 17.033478 18.601374 94.895168
RightForeArm 34.339983 -0.000000 49.806490
RightHand 22.989200 -0.000000 -42.730150
RightHandThumb1 -24.326973 -0.000000 -32.862282
LeftShoulder 2.005200 58.845410 16.353664
LeftArm 97.603674 -73.081547 -10.450210
LeftForeArm -49.719507 0.000000 39.660856
LeftHand -42.048201 -0.000000 25.768202
LeftHandThumb1 -26.253704 0.000000 33.147579
Head 8.767533 4.485321 -24.120448
1776
root -3.217799 29.735228 -12.333212 123.173824 1.955379 7.138709
RightUpLeg -128.950677 -30.173811 16.739889
RightLeg -1.973309 -0.000000 0.000000
RightFoot -8.877077 -6.816442 39.208642
RightToeBase 24.632700 -0.000000 -0.000000
LeftUpLeg -132.254206 7.500295 -17.085919
LeftLeg -1.422122 -0.000000 0.000000
LeftFoot 10.533891 -8.388211 -21.022512
LeftToeBase 6.233794 -0.000000 -0.000000
Spine 12.430829 5.239824 1.037499
RightShoulder 8.305886 27.203520 -44.902425
RightArm 16.386160 17.924002 94.413915
RightForeArm 35.202554 -0.000000 49.384342
RightHand 22.544479 -0.000000 -42.784941
RightHandThumb1 -24.326973 -0.000000 -32.862282
LeftShoulder 1.941905 59.155055 16.777029
LeftArm 96.230028 -73.997036 -8.900339
LeftForeArm -50.885433 -0.000000 39.807938
LeftHand -41.321643 -0.000000 21.155962
LeftHandThumb1 -26.253704 0.000000 33.147579
Head 9.159331 4.257109 -23.315801
1777
root -3.232716 29.722290 -12.356528 123.288234 2.037416 7.098150
RightUpLeg -128.945189 -30.312460 16.481366
RightLeg -1.915660 -0.000000 0.000000
RightFoot -9.015419 -7.227373 39.455655
RightToeBase 24.658178 -0.000000 -0.000000
LeftUpLeg -132.450969 7.609438 -17.024089
LeftLeg -1.414564 -0.000000 0.000000
LeftFoot 10.533810 -8.299208 -21.085621
LeftToeBase 6.276266 -0.000000 -0.000000
Spine 11.942841 5.731474 0.541523
RightShoulder 7.910865 27.088989 -45.083491
RightArm 15.687030 17.122384 94.043493
RightForeArm 35.917483 -0.000000 49.023317
RightHand 21.964253 0.000000 -42.624139
RightHandThumb1 -24.326973 -0.000000 -32.862282
LeftShoulder 1.698541 59.420059 17.012543
LeftArm 94.876518 -74.923792 -7.369946
LeftForeArm -51.831263 0.000000 40.012301
LeftHand -40.754564 -0.000000 17.161009
LeftHandThumb1 -26.253704 0.000000 33.147579
Head 9.297659 4.099771 -22.702918
1778
root -3.246726 29.710016 -12.374812 123.395294 2.111671 7.056009
RightUpLeg -129.002933 -30.393611 16.299247
RightLeg -1.781381 -0.000000 0.000000
RightFoot -9.019056 -7.547071 39.645835
RightToeBase 24.368063 -0.000000 -0.000000
LeftUpLeg -132.650120 7.668995 -17.021311
LeftLeg -1.378403 -0.000000 0.000000
LeftFoot 10.542374 -8.294976 -21.183378
LeftToeBase 6.149918 -0.000000 -0.000000
Spine 11.420324 6.167066 0.033671
RightShoulder 7.658779 26.924712 -45.185438
RightArm 15.077958 16.349256 93.683352
RightForeArm 36.328241 0.000000 48.737359
RightHand 21.318277 -0.000000 -42.161723
RightHandThumb1 -24.326973 -0.000000 -32.862282
LeftShoulder 1.672264 59.778312 17.390806
LeftArm 93.684855 -75.868056 -6.226429
LeftForeArm -52.961624 0.000000 40.260824
LeftHand -40.179210 -0.000000 13.329138
LeftHandThumb1 -26.253704 0.000000 33.147579
Head 9.633690 3.892799 -22.105335
1779
root -3.260958 29.697906 -12.392715 123.509375 2.211687 7.031874
RightUpLeg -129.034644 -30.507746 16.131845
RightLeg -1.693053 -0.000000 0.000000
RightFoot -9.261067 -7.844934 40.480385
RightToeBase 24.630476 -0.000000 -0.000000
LeftUpLeg -132.853203 7.724644 -16.989304
LeftLeg -1.349326 -0.000000 0.000000
LeftFoot 10.563604 -8.279142 -21.252813
LeftToeBase 6.194763 -0.000000 -0.000000
Spine 10.937543 6.566951 -0.444743
RightShoulder 7.330661 26.836946 -45.405301
RightArm 14.443977 15.483686 93.414359
RightForeArm 37.084181 -0.000000 48.444748
RightHand 20.902927 -0.000000 -41.229907
RightHandThumb1 -24.326973 -0.000000 -32.862282
LeftShoulder 1.487260 60.067651 17.637739
LeftArm 93.464671 -76.697454 -6.055472
LeftForeArm -53.618128 -0.000000 40.585421
LeftHand -39.538683 0.000000 9.759760
LeftHandThumb1 -26.253704 0.000000 33.147579
Head 9.706616 3.610101 -21.624543
1780
root -3.276354 29.685209 -12.403111 123.633066 2.307330 7.003132
RightUpLeg -129.058229 -30.590192 15.992152
RightLeg -1.645568 -0.000000 0.000000
RightFoot -9.476612 -8.103086 40.962920
RightToeBase 24.301436 -0.000000 -0.000000
LeftUpLeg -133.061289 7.735794 -17.020780
LeftLeg -1.323160 -0.000000 0.000000
LeftFoot 10.621199 -8.340297 -21.343230
LeftToeBase 6.136602 -0.000000 -0.000000
Spine 10.480566 6.889867 -0.923631
RightShoulder 6.960090 26.843048 -45.631930
RightArm 13.821168 14.573618 93.261829
RightForeArm 37.858576 0.000000 48.309297
RightHand 20.549698 -0.000000 -40.839955
RightHandThumb1 -24.326973 -0.000000 -32.862282
LeftShoulder 1.014947 60.406986 17.546433
LeftArm 93.740971 -77.536331 -6.602688
LeftForeArm -54.117454 -0.000000 41.174484
LeftHand -38.397164 -0.000000 6.769655
LeftHandThumb1 -26.253704 0.000000 33.147579
Head 9.676794 3.428646 -21.262444
